<?xml version="1.0" encoding="UTF-8" standalone="no"?>
<svg xmlns:dc="http://purl.org/dc/elements/1.1/" xmlns:cc="http://creativecommons.org/ns#" xmlns:rdf="http://www.w3.org/1999/02/22-rdf-syntax-ns#" xmlns:svg="http://www.w3.org/2000/svg" xmlns="http://www.w3.org/2000/svg" id="svg8" version="1.1" viewBox="0 0 93.752159 15.044483" height="15.044483mm" width="93.752159mm">
  <defs id="defs2" />
  <metadata id="metadata5">
    <rdf:RDF>
      <cc:Work rdf:about="">
        <dc:format>image/svg+xml</dc:format>
        <dc:type rdf:resource="http://purl.org/dc/dcmitype/StillImage" />
        <dc:title></dc:title>
      </cc:Work>
    </rdf:RDF>
  </metadata>
  <g transform="translate(-53.297166,-32.389937)" id="layer1">
    <g style="font-style:normal;font-variant:normal;font-weight:normal;font-stretch:normal;font-size:14.1111px;line-height:1.25;font-family:'Courier New';-inkscape-font-specification:'Courier New';letter-spacing:0px;word-spacing:0px;fill:#000000;fill-opacity:1;stroke:none;stroke-width:0.264583" id="text835" aria-label="ASCII Canvas">
      <path id="path872" style="font-style:normal;font-variant:normal;font-weight:normal;font-stretch:normal;font-family:Cubano;-inkscape-font-specification:Cubano;stroke-width:0.264583" d="m 64.916714,43.977181 c 0,0.310445 -0.141111,0.479778 -0.423333,0.479778 h -1.580443 c -0.268111,0 -0.423333,-0.141111 -0.423333,-0.423333 V 42.80596 c 0,-0.282222 -0.141111,-0.423333 -0.423333,-0.423333 h -1.213555 c -0.268111,0 -0.423333,0.141111 -0.423333,0.423333 v 1.227666 c 0,0.282222 -0.141111,0.423333 -0.423333,0.423333 h -1.580443 c -0.268111,0 -0.423333,-0.169333 -0.423333,-0.479778 v -5.983106 c 0,-1.777999 0.282222,-3.668886 3.457219,-3.668886 3.174998,0 3.45722,1.890887 3.45722,3.668886 z m -2.427109,-5.983106 c 0,-0.677333 -0.09878,-1.015999 -1.030111,-1.015999 -0.931332,0 -1.03011,0.338666 -1.03011,1.015999 v 1.53811 c 0,0.268111 0.155222,0.423333 0.423333,0.423333 h 1.213555 c 0.282222,-0.01411 0.423333,-0.155222 0.423333,-0.437444 z" />
      <path id="path874" style="font-style:normal;font-variant:normal;font-weight:normal;font-stretch:normal;font-family:Cubano;-inkscape-font-specification:Cubano;stroke-width:0.264583" d="m 72.790706,37.725964 c 0.254,-0.05644 0.381,-0.211667 0.366889,-0.465666 -0.08467,-1.016 -0.761999,-2.906887 -3.668886,-2.906887 -3.160886,0 -3.414886,2.497665 -3.400775,2.920998 0,3.245553 4.247441,2.977442 4.515552,4.176885 0.08467,0.381 -0.423333,0.790222 -1.114777,0.790222 -0.663222,0 -1.185332,-0.395111 -1.241777,-1.072444 -0.02822,-0.296333 -0.183444,-0.423333 -0.465666,-0.366888 l -1.594554,0.352777 c -0.254,0.05644 -0.381,0.211667 -0.366889,0.465667 0.07055,1.100665 0.705555,3.047997 3.668886,3.047997 3.344331,0 3.824108,-2.497664 3.824108,-2.920997 0,-3.245554 -4.459108,-3.217331 -4.656663,-4.317997 -0.05644,-0.324555 0.282222,-0.649111 0.832555,-0.649111 0.663222,0 1.128888,0.366889 1.227666,0.945444 0.04233,0.282222 0.183444,0.409222 0.465666,0.352777 z" />
      <path id="path876" style="font-style:normal;font-variant:normal;font-weight:normal;font-stretch:normal;font-family:Cubano;-inkscape-font-specification:Cubano;stroke-width:0.264583" d="m 74.187685,41.281961 c 0,0.931333 0.197556,3.428998 3.541887,3.428998 3.005664,0 3.47133,-2.017888 3.527775,-3.090331 0.01411,-0.211667 -0.112889,-0.366889 -0.310445,-0.409222 l -1.594554,-0.352778 c -0.282222,-0.07056 -0.508,0.112889 -0.550333,0.409222 -0.08467,0.649111 -0.296333,1.015999 -1.072443,1.015999 -1.044222,0 -1.114777,-0.663221 -1.114777,-1.749776 v -2.031999 c 0,-1.086554 0.07055,-1.749776 1.114777,-1.749776 0.761999,0 1.015999,0.366889 1.086554,0.987777 0.04233,0.296333 0.268111,0.493889 0.564444,0.437444 l 1.566332,-0.352777 c 0.197556,-0.04233 0.324556,-0.197556 0.310445,-0.395111 -0.05644,-1.086555 -0.522111,-3.104442 -3.527775,-3.104442 -3.344331,0 -3.541887,2.497665 -3.541887,3.428997 z" />
      <path id="path878" style="font-style:normal;font-variant:normal;font-weight:normal;font-stretch:normal;font-family:Cubano;-inkscape-font-specification:Cubano;stroke-width:0.264583" d="m 84.206559,34.579189 c 0.282222,0 0.423333,0.141111 0.423333,0.423333 v 9.031104 c 0,0.268111 -0.141111,0.423333 -0.423333,0.423333 h -1.552221 c -0.268111,0 -0.423333,-0.155222 -0.423333,-0.423333 v -9.031104 c 0,-0.282222 0.155222,-0.423333 0.423333,-0.423333 z" />
      <path id="path880" style="font-style:normal;font-variant:normal;font-weight:normal;font-stretch:normal;font-family:Cubano;-inkscape-font-specification:Cubano;stroke-width:0.264583" d="m 88.016535,34.579189 c 0.282222,0 0.423333,0.141111 0.423333,0.423333 v 9.031104 c 0,0.268111 -0.141111,0.423333 -0.423333,0.423333 h -1.552221 c -0.268111,0 -0.423333,-0.155222 -0.423333,-0.423333 v -9.031104 c 0,-0.282222 0.155222,-0.423333 0.423333,-0.423333 z" />
      <path id="path882" style="font-style:normal;font-variant:normal;font-weight:normal;font-stretch:normal;font-family:Cubano;-inkscape-font-specification:Cubano;stroke-width:0.264583" d="m 93.943167,41.281961 c 0,0.931333 0.197556,3.428998 3.541886,3.428998 3.005667,0 3.471327,-2.017888 3.527777,-3.090331 0.0141,-0.211667 -0.11289,-0.366889 -0.31045,-0.409222 l -1.59455,-0.352778 c -0.282222,-0.07056 -0.508,0.112889 -0.550333,0.409222 -0.08467,0.649111 -0.296333,1.015999 -1.072444,1.015999 -1.044221,0 -1.114777,-0.663221 -1.114777,-1.749776 v -2.031999 c 0,-1.086554 0.07056,-1.749776 1.114777,-1.749776 0.762,0 1.016,0.366889 1.086555,0.987777 0.04233,0.296333 0.268111,0.493889 0.564444,0.437444 l 1.566328,-0.352777 c 0.19756,-0.04233 0.32456,-0.197556 0.31045,-0.395111 -0.0564,-1.086555 -0.52211,-3.104442 -3.527777,-3.104442 -3.34433,0 -3.541886,2.497665 -3.541886,3.428997 z" />
      <path id="path884" style="font-style:normal;font-variant:normal;font-weight:normal;font-stretch:normal;font-family:Cubano;-inkscape-font-specification:Cubano;stroke-width:0.264583" d="m 108.83037,43.977181 c 0,0.310445 -0.14111,0.479778 -0.42333,0.479778 h -1.58044 c -0.26812,0 -0.42334,-0.141111 -0.42334,-0.423333 V 42.80596 c 0,-0.282222 -0.14111,-0.423333 -0.42333,-0.423333 h -1.21355 c -0.26812,0 -0.42334,0.141111 -0.42334,0.423333 v 1.227666 c 0,0.282222 -0.14111,0.423333 -0.42333,0.423333 h -1.58044 c -0.26812,0 -0.42334,-0.169333 -0.42334,-0.479778 v -5.983106 c 0,-1.777999 0.28222,-3.668886 3.45722,-3.668886 3.175,0 3.45722,1.890887 3.45722,3.668886 z m -2.42711,-5.983106 c 0,-0.677333 -0.0988,-1.015999 -1.03011,-1.015999 -0.93133,0 -1.03011,0.338666 -1.03011,1.015999 v 1.53811 c 0,0.268111 0.15522,0.423333 0.42334,0.423333 h 1.21355 c 0.28222,-0.01411 0.42333,-0.155222 0.42333,-0.437444 z" />
      <path id="path886" style="font-style:normal;font-variant:normal;font-weight:normal;font-stretch:normal;font-family:Cubano;-inkscape-font-specification:Cubano;stroke-width:0.264583" d="m 112.66859,34.579189 c 0.23988,0 0.39511,0.09878 0.49388,0.324555 l 1.91911,4.698996 c 0.0564,0.127 0.16934,0.09878 0.16934,-0.04233 v -4.557885 c 0,-0.282222 0.15522,-0.423333 0.42333,-0.423333 h 1.58044 c 0.28223,0 0.42334,0.141111 0.42334,0.423333 v 9.031104 c 0,0.268111 -0.14111,0.423333 -0.42334,0.423333 h -2.07433 c -0.23989,0 -0.39511,-0.09878 -0.49389,-0.324556 l -1.91911,-4.698996 c -0.0564,-0.127 -0.16933,-0.09878 -0.16933,0.04233 v 4.557886 c 0,0.268111 -0.14111,0.423333 -0.42333,0.423333 h -1.58045 c -0.26811,0 -0.42333,-0.155222 -0.42333,-0.423333 v -9.031104 c 0,-0.282222 0.15522,-0.423333 0.42333,-0.423333 z" />
      <path id="path888" style="font-style:normal;font-variant:normal;font-weight:normal;font-stretch:normal;font-family:Cubano;-inkscape-font-specification:Cubano;stroke-width:0.264583" d="m 120.68369,34.579189 c 0.254,0 0.40922,0.127 0.46567,0.366888 l 1.24178,5.418663 c 0.0282,0.127 0.14111,0.127 0.16933,0 l 1.24178,-5.418663 c 0.0564,-0.239888 0.21166,-0.366888 0.46566,-0.366888 h 1.67922 c 0.29634,0 0.43745,0.169333 0.36689,0.465666 l -2.06022,9.045215 c -0.0564,0.239889 -0.21167,0.366889 -0.46567,0.366889 h -2.62466 c -0.254,0 -0.40922,-0.127 -0.46567,-0.366889 l -2.06022,-9.045215 c -0.0705,-0.296333 0.0706,-0.465666 0.36689,-0.465666 z" />
      <path id="path890" style="font-style:normal;font-variant:normal;font-weight:normal;font-stretch:normal;font-family:Cubano;-inkscape-font-specification:Cubano;stroke-width:0.264583" d="m 133.94811,43.977181 c 0,0.310445 -0.14111,0.479778 -0.42333,0.479778 h -1.58045 c -0.26811,0 -0.42333,-0.141111 -0.42333,-0.423333 V 42.80596 c 0,-0.282222 -0.14111,-0.423333 -0.42333,-0.423333 h -1.21356 c -0.26811,0 -0.42333,0.141111 -0.42333,0.423333 v 1.227666 c 0,0.282222 -0.14111,0.423333 -0.42333,0.423333 H 127.457 c -0.26811,0 -0.42333,-0.169333 -0.42333,-0.479778 v -5.983106 c 0,-1.777999 0.28222,-3.668886 3.45722,-3.668886 3.175,0 3.45722,1.890887 3.45722,3.668886 z M 131.521,37.994075 c 0,-0.677333 -0.0988,-1.015999 -1.03011,-1.015999 -0.93133,0 -1.03011,0.338666 -1.03011,1.015999 v 1.53811 c 0,0.268111 0.15522,0.423333 0.42333,0.423333 h 1.21356 c 0.28222,-0.01411 0.42333,-0.155222 0.42333,-0.437444 z" />
      <path id="path892" style="font-style:normal;font-variant:normal;font-weight:normal;font-stretch:normal;font-family:Cubano;-inkscape-font-specification:Cubano;stroke-width:0.264583" d="m 141.82211,37.725964 c 0.254,-0.05644 0.38099,-0.211667 0.36688,-0.465666 -0.0847,-1.016 -0.762,-2.906887 -3.66888,-2.906887 -3.16089,0 -3.41489,2.497665 -3.40078,2.920998 0,3.245553 4.24744,2.977442 4.51555,4.176885 0.0847,0.381 -0.42333,0.790222 -1.11477,0.790222 -0.66322,0 -1.18533,-0.395111 -1.24178,-1.072444 -0.0282,-0.296333 -0.18344,-0.423333 -0.46567,-0.366888 l -1.59455,0.352777 c -0.254,0.05644 -0.381,0.211667 -0.36689,0.465667 0.0706,1.100665 0.70556,3.047997 3.66889,3.047997 3.34433,0 3.82411,-2.497664 3.82411,-2.920997 0,-3.245554 -4.45911,-3.217331 -4.65667,-4.317997 -0.0564,-0.324555 0.28222,-0.649111 0.83256,-0.649111 0.66322,0 1.12889,0.366889 1.22766,0.945444 0.0423,0.282222 0.18345,0.409222 0.46567,0.352777 z" />
    </g>
    <g transform="translate(-0.60359367)" id="g870">
      <path id="path845" style="font-style:normal;font-variant:normal;font-weight:bold;font-stretch:normal;font-size:14.1111px;line-height:1.25;font-family:'Covington Exp';-inkscape-font-specification:'Covington Exp Bold';letter-spacing:0px;word-spacing:0px;fill:#000000;fill-opacity:1;stroke:#000000;stroke-width:0.349617" d="M 54.075568,47.259612 V 32.564746 h 3.131992 v 1.047033 h -1.693461 v 12.637219 h 1.693461 v 1.010614 z" />
      <path d="M 147.47811,47.259612 V 32.564746 h -3.13199 v 1.047033 h 1.69346 v 12.637219 h -1.69346 v 1.010614 z" style="font-style:normal;font-variant:normal;font-weight:bold;font-stretch:normal;font-size:14.1111px;line-height:1.25;font-family:'Covington Exp';-inkscape-font-specification:'Covington Exp Bold';font-variation-settings:normal;letter-spacing:0px;word-spacing:0px;opacity:1;vector-effect:none;fill:#000000;fill-opacity:1;stroke:#000000;stroke-width:0.349617;stroke-linecap:butt;stroke-linejoin:miter;stroke-miterlimit:4;stroke-dasharray:none;stroke-dashoffset:0;stroke-opacity:1;stop-color:#000000;stop-opacity:1" id="path852" />
    </g>
  </g>
</svg>
